# xmcd CD database file
#
# Track frame offsets:
#	150
#	15067
#	27667
#
# Disc length: 612 seconds
#
# Revision: 0
# Processed by: cddbd v1.5PL3 Copyright (c) Steve Scherf et al.
# Submitted via: CDex 1.50
#
DISCID=15026203
DTITLE=ウルフルズ - トコトンで行こう!
DYEAR=1995
DGENRE=Japanese Rock
TTITLE0=トコトンで行こう!
TTITLE1=安産ママ
TTITLE2=それがドーシタ
EXTD=YEAR: 1995
EXTT0=
EXTT1=
EXTT2=
PLAYORDER=
